<?xml version="1.0" encoding="utf-8"?>
<!-- Generator: Adobe Illustrator 28.0.0, SVG Export Plug-In . SVG Version: 6.00 Build 0)  -->
<svg version="1.0" id="Layer_1" xmlns="http://www.w3.org/2000/svg" xmlns:xlink="http://www.w3.org/1999/xlink" x="0px" y="0px"
	 viewBox="0 0 512 512" style="enable-background:new 0 0 512 512;" xml:space="preserve">
<style type="text/css">
	.st0{opacity:0.962;fill-rule:evenodd;clip-rule:evenodd;enable-background:new    ;}
</style>
<path class="st0" d="M255.5,371.5c-6.5,0-12.8-1.6-18.9-4.6l-2.9-1.5L65.4,197.2l-1.5-3.1c-9.8-20.4-3.9-40.2,15.2-51.8l3.8-2.3
	l4.4-0.5c1.9-0.2,3.7-0.3,5.6-0.3c7.2,0,14.1,1.5,20.7,4.4l3.4,1.5l2.6,2.6c44.9,45,90.5,90.5,135.8,135.5
	c45.3-44.9,91-90.4,135.8-135.5l2.3-2.3l2.9-1.5c6.1-3.1,12.5-4.6,18.9-4.6s12.8,1.6,18.9,4.6l3.2,1.6l2.4,2.6
	c12.3,13,14.8,29.8,7,46l-1.5,3l-168,168.3l-2.9,1.5C268.3,369.9,262,371.5,255.5,371.5z"/>
</svg>
