<?xml version="1.0" encoding="utf-8"?>
<!-- Generator: Adobe Illustrator 28.0.0, SVG Export Plug-In . SVG Version: 6.00 Build 0)  -->
<svg version="1.0" id="Layer_1" xmlns="http://www.w3.org/2000/svg" xmlns:xlink="http://www.w3.org/1999/xlink" x="0px" y="0px"
	 viewBox="0 0 512 512" style="enable-background:new 0 0 512 512;" xml:space="preserve">
<style type="text/css">
	.st0{opacity:0.972;fill-rule:evenodd;clip-rule:evenodd;enable-background:new    ;}
	.st1{opacity:0.985;fill-rule:evenodd;clip-rule:evenodd;enable-background:new    ;}
	.st2{opacity:0.993;fill-rule:evenodd;clip-rule:evenodd;enable-background:new    ;}
</style>
<g>
	<path class="st0" d="M178.5-0.5c11,0,22,0,33,0c34.6,5,64.1,20,88.5,45c49.6-13.2,92-1.2,127,36c19.3,23.4,29.2,50.4,29.5,81
		c30.5,10.9,48.9,32.2,55,64c0,9.3,0,18.7,0,28c-4.5,26-18.1,45.5-41,58.5c-7,3.3-14.3,5.7-22,7c-13.3,0.7-26.7,0.7-40,0
		c-11.3-5.3-15.4-14.2-12.5-26.5c2.2-6.2,6.3-10.3,12.5-12.5c11.7-0.2,23.4-0.9,35-2c18.1-6.3,27.1-19.1,27-38.5
		c-1.6-27.5-16.3-41-44-40.5c-8.1-3.8-12.8-10.1-14-19c7.3-37-4.3-66.4-35-88c-25.6-14.7-51.6-15.7-78-3c-8.5,1.9-16,0.1-22.5-5.5
		C249.3,46.4,212.8,33.2,167.5,44c-39.2,13.6-62.7,40.7-70.5,81.5c-0.7,9-0.7,18,0,27c2.1,9,4.2,18,6.5,27
		c-0.6,9.4-5.3,15.9-14,19.5c-34.8-1.6-51,14.9-48.5,49.5c4,18.7,15.5,28.9,34.5,30.5c9,0.3,18,0.7,27,1
		c11.3,5.3,15.4,14.2,12.5,26.5c-2.2,6.2-6.3,10.3-12.5,12.5c-13.3,0.7-26.7,0.7-40,0C27,311,6,289.2-0.5,253.5c0-9.3,0-18.7,0-28
		c5.3-28.8,21.3-49.3,48-61.5c2.9-1.1,5.9-2,9-2.5C50,99.6,72.7,51.8,124.5,18C141.5,8.5,159.5,2.3,178.5-0.5z"/>
</g>
<g>
	<path class="st1" d="M208.5,159.5c31.3-0.2,62.7,0,94,0.5c6.2,2.2,10.3,6.3,12.5,12.5c0.5,49,0.7,98,0.5,147c9-0.2,18,0,27,0.5
		c12,6,15.8,15.5,11.5,28.5c-1,1.7-2,3.3-3,5c-27.2,27.2-54.3,54.3-81.5,81.5c-9.3,6-18.7,6-28,0c-28.2-27.9-56-56-83.5-84.5
		c-5.8-13.5-2.3-23.7,10.5-30.5c9-0.5,18-0.7,27-0.5c-0.2-49,0-98,0.5-147C198.4,166.3,202.5,162,208.5,159.5z M235.5,199.5
		c13.3,0,26.7,0,40,0c-0.2,49,0,98,0.5,147c1.9,5.4,5.4,9.4,10.5,12c-10,10.7-20.3,21-31,31c-10.7-10-21-20.3-31-31
		c5.1-2.6,8.6-6.6,10.5-12C235.5,297.5,235.7,248.5,235.5,199.5z"/>
</g>
<g>
	<path class="st2" d="M382.5,511.5c-84.7,0-169.3,0-254,0c-6-2.5-10.1-6.8-12.5-13c-0.7-18-0.7-36,0-54
		c5.3-11.3,14.2-15.4,26.5-12.5c6.2,2.2,10.3,6.3,12.5,12.5c0.5,9,0.7,18,0.5,27c66.7,0,133.3,0,200,0c-0.2-9,0-18,0.5-27
		c5.3-11.3,14.2-15.4,26.5-12.5c6.2,2.2,10.3,6.3,12.5,12.5c0.7,18,0.7,36,0,54C392.6,504.7,388.5,509,382.5,511.5z"/>
</g>
</svg>
