<?xml version="1.0" encoding="utf-8"?>
<!-- Generator: Adobe Illustrator 28.0.0, SVG Export Plug-In . SVG Version: 6.00 Build 0)  -->
<svg version="1.0" id="Layer_1" xmlns="http://www.w3.org/2000/svg" xmlns:xlink="http://www.w3.org/1999/xlink" x="0px" y="0px"
	 viewBox="0 0 512 512" style="enable-background:new 0 0 512 512;" xml:space="preserve">
<style type="text/css">
	.st0{opacity:0.972;fill-rule:evenodd;clip-rule:evenodd;enable-background:new    ;}
</style>
<g>
	<path class="st0" d="M511.5,240.5c0,10,0,20,0,30c-2.4,14.1-7.2,27.4-14.5,40c-27.1,45.5-63.3,82-108.5,109.5
		c-67,36.9-137.3,44.9-211,24c-45.6-14.5-84.7-39-117.5-73.5c-21.2-22.2-38.8-46.8-53-74c-3.1-8.6-5.6-17.3-7.5-26c0-10,0-20,0-30
		c2.4-14.1,7.2-27.4,14.5-40C42.6,152.6,81.1,114.7,129.5,87c64.2-32.9,131.2-39.9,201-21c46.7,14.6,86.8,39.4,120.5,74.5
		c21.2,22.2,38.8,46.8,53,74C507.1,223.1,509.6,231.8,511.5,240.5z M237.5,99.5c63.2-3.6,118.5,15.3,166,56.5
		c24,21.7,43.8,46.5,59.5,74.5c8,19.1,7,37.8-3,56c-24.5,40.5-57,73-97.5,97.5c-59.3,31.4-120.6,36-184,14
		C121.4,373.9,77.9,334.8,48,280.5c-8-19.1-7-37.8,3-56c28-47,66.5-82.5,115.5-106.5C189.4,108.2,213,102,237.5,99.5z M255.5,191.5
		c33.4,2.8,54.3,20.5,62.5,53c3.1,36.2-12.4,60.4-46.5,72.5c-35.3,6.3-60.5-6.9-75.5-39.5c-9.5-35,1.4-61.5,32.5-79.5
		C237.3,194.4,246.3,192.2,255.5,191.5z"/>
</g>
<g>
	<path class="st0" d="M243.5,148.5c46-2.7,81.2,15.3,105.5,54c21.1,43,17.5,83.7-11,122c-32.4,34.8-71.6,45.6-117.5,32.5
		c-50.5-20.8-74.4-58.7-71.5-113.5c4.9-35.7,22.8-62.9,53.5-81.5C215.5,155.2,229.2,150.7,243.5,148.5z M255.5,191.5
		c-9.2,0.7-18.2,2.9-27,6.5c-31.1,18-42,44.5-32.5,79.5c15,32.6,40.2,45.8,75.5,39.5c34.1-12.1,49.6-36.3,46.5-72.5
		C309.8,212,288.9,194.3,255.5,191.5z"/>
</g>
</svg>
