<?xml version="1.0" encoding="utf-8"?>
<!-- Generator: Adobe Illustrator 28.0.0, SVG Export Plug-In . SVG Version: 6.00 Build 0)  -->
<svg version="1.0" id="Layer_1" xmlns="http://www.w3.org/2000/svg" xmlns:xlink="http://www.w3.org/1999/xlink" x="0px" y="0px"
	 viewBox="0 0 512 512" style="enable-background:new 0 0 512 512;" xml:space="preserve">
<style type="text/css">
	.st0{opacity:0.976;fill-rule:evenodd;clip-rule:evenodd;enable-background:new    ;}
	.st1{opacity:0.967;fill-rule:evenodd;clip-rule:evenodd;enable-background:new    ;}
	.st2{opacity:0.954;fill-rule:evenodd;clip-rule:evenodd;enable-background:new    ;}
</style>
<g>
	<path class="st0" d="M-0.5,260.5c0-3.3,0-6.7,0-10c32.2-83.1,90.9-138.2,176-165.5c59-16.9,117.4-14.9,175,6
		c9.2,3.5,18,7.7,26.5,12.5c12.2-12.2,24.3-24.3,36.5-36.5c13.5-6.9,24.4-4.1,32.5,8.5c2.5,7.7,1.8,15-2,22
		C327.8,214,211.3,330.2,94.5,446c-22,4.7-32.1-4.1-30.5-26.5c1-2,2-4,3-6c9.2-9.2,18.3-18.3,27.5-27.5
		C50.4,353.4,18.7,311.6-0.5,260.5z M237.5,117.5c36.6-2.1,72,3.6,106,17c-10,10.5-20.2,20.8-30.5,31c-31.7-19.3-64.9-22.1-99.5-8.5
		c-50.1,25.7-71,66.6-62.5,122.5c2.9,12,7.7,23.2,14.5,33.5c-13.2,13.3-26.5,26.5-40,39.5c-36.8-24-63.5-56.3-80-97
		c24.6-58.1,66.3-99,125-122.5C192.3,124.8,214.6,119.6,237.5,117.5z M254.5,191.5c9,0.3,17.7,2.3,26,6c1,0.5,1.2,1.2,0.5,2
		c-27,27-54,54-81,81c-5.8-7.3-8.3-15.6-7.5-25c0.7-24.3,11.4-42.8,32-55.5C234,195,244,192.2,254.5,191.5z"/>
</g>
<g>
	<path class="st1" d="M511.5,251.5c0,3.3,0,6.7,0,10c-32.7,82.5-91.3,137.3-176,164.5c-52.6,14.9-105.2,15.3-158,1
		c-0.5-0.4-0.8-0.9-1-1.5c11.5-11.3,23.2-22.5,35-33.5c81.9,13.1,152.1-9.4,210.5-67.5c18.3-19.8,32.8-42.2,43.5-67
		c-12.1-26.8-28.1-51-48-72.5c9.3-10.3,19-20.3,29-30c0.7-0.7,1.3-0.7,2,0C476.6,182.6,497.6,214.7,511.5,251.5z"/>
</g>
<g>
	<path class="st2" d="M358.5,240.5c1-0.1,1.8,0.2,2.5,1c4.6,43-10.6,77.1-45.5,102.5c-22.9,15.8-47.9,21-75,15.5
		C279.9,319.8,319.2,280.1,358.5,240.5z"/>
</g>
</svg>
