<?xml version="1.0" encoding="utf-8"?>
<!-- Generator: Adobe Illustrator 28.0.0, SVG Export Plug-In . SVG Version: 6.00 Build 0)  -->
<svg version="1.0" id="Layer_1" xmlns="http://www.w3.org/2000/svg" xmlns:xlink="http://www.w3.org/1999/xlink" x="0px" y="0px"
	 viewBox="0 0 512 512" style="enable-background:new 0 0 512 512;" xml:space="preserve">
<style type="text/css">
	.st0{opacity:0.975;fill-rule:evenodd;clip-rule:evenodd;enable-background:new    ;}
	.st1{opacity:0.965;fill-rule:evenodd;clip-rule:evenodd;enable-background:new    ;}
</style>
<g>
	<path class="st0" d="M272.5-0.5c10.7,0,21.3,0,32,0c6.1,2,10.6,6,13.5,12c15.7,79.7,23.5,160.2,23.5,241.5
		c-0.1,82.9-7.9,165.1-23.5,246.5c-2.9,6-7.4,10-13.5,12c-10.7,0-21.3,0-32,0c-72.3-5.6-135.9-31.7-191-78.5
		c-47-42.2-74.4-94.7-82-157.5c0-13.3,0-26.7,0-40c7.6-62.8,35-115.3,82-157.5C136.6,31.2,200.2,5.1,272.5-0.5z M269.5,43.5
		c3.7,0,7.3,0,11,0c22.6,141.3,22.6,282.7,0,424c-64.5-3.4-121.2-25.9-170-67.5c-43-38.5-65.7-86.6-68-144.5
		c2.3-57.9,25-106,68-144.5C156.4,72.1,209.4,49.6,269.5,43.5z"/>
</g>
<g>
	<path class="st1" d="M511.5,57.5c0,4,0,8,0,12c-3,8.5-9,13.7-18,15.5c-30.7,0.7-61.3,0.7-92,0c-14.3-3.7-20.1-12.8-17.5-27.5
		c2.7-8.7,8.5-13.9,17.5-15.5c30.7-0.7,61.3-0.7,92,0C502.5,43.8,508.5,49,511.5,57.5z"/>
</g>
<g>
	<path class="st1" d="M511.5,185.5c0,4,0,8,0,12c-3,8.5-9,13.7-18,15.5c-30.7,0.7-61.3,0.7-92,0c-14.3-3.7-20.1-12.8-17.5-27.5
		c2.7-8.7,8.5-13.9,17.5-15.5c30.7-0.7,61.3-0.7,92,0C502.5,171.8,508.5,177,511.5,185.5z"/>
</g>
<g>
	<path class="st1" d="M511.5,313.5c0,4,0,8,0,12c-3,8.5-9,13.7-18,15.5c-30.7,0.7-61.3,0.7-92,0c-14.3-3.7-20.1-12.8-17.5-27.5
		c2.7-8.7,8.5-13.9,17.5-15.5c30.7-0.7,61.3-0.7,92,0C502.5,299.8,508.5,305,511.5,313.5z"/>
</g>
<g>
	<path class="st1" d="M511.5,441.5c0,4,0,8,0,12c-3,8.5-9,13.7-18,15.5c-30.7,0.7-61.3,0.7-92,0c-14.3-3.7-20.1-12.8-17.5-27.5
		c2.7-8.7,8.5-13.9,17.5-15.5c30.7-0.7,61.3-0.7,92,0C502.5,427.8,508.5,433,511.5,441.5z"/>
</g>
</svg>
