<?xml version="1.0" encoding="utf-8"?>
<!-- Generator: Adobe Illustrator 28.0.0, SVG Export Plug-In . SVG Version: 6.00 Build 0)  -->
<svg version="1.0" id="Layer_1" xmlns="http://www.w3.org/2000/svg" xmlns:xlink="http://www.w3.org/1999/xlink" x="0px" y="0px"
	 viewBox="0 0 512 512" style="enable-background:new 0 0 512 512;" xml:space="preserve">
<style type="text/css">
	.st0{opacity:0.963;fill-rule:evenodd;clip-rule:evenodd;enable-background:new    ;}
	.st1{opacity:0.957;fill-rule:evenodd;clip-rule:evenodd;enable-background:new    ;}
	.st2{opacity:0.953;fill-rule:evenodd;clip-rule:evenodd;enable-background:new    ;}
	.st3{opacity:0.952;fill-rule:evenodd;clip-rule:evenodd;enable-background:new    ;}
	.st4{opacity:0.96;fill-rule:evenodd;clip-rule:evenodd;enable-background:new    ;}
</style>
<g>
	<path class="st0" d="M185.5,31.5c7.7-1.5,14.2,0.5,19.5,6c2.6,9.6,6.6,18.6,12,27c30.1,42.5,59.4,85.5,88,129
		c17.2,27.3,30.8,56.3,41,87c14.5,64.4-2.6,118.5-51.5,162.5c-51,39.1-106.7,47.1-167,24C72.8,440.9,40.9,397.7,32,337.5
		c-1.8-19.3-0.2-38.3,5-57c6.4-20.5,14.7-40.1,25-59c8.2-15,16.8-29.7,26-44c25.8-37.8,51.8-75.5,78-113c5.4-8.4,9.4-17.4,12-27
		C180.1,34.9,182.6,32.9,185.5,31.5z M190.5,86.5c29,39,56.9,79,83.5,120c17.4,26.8,31.1,55.5,41,86c10.2,57.5-8.7,102.6-56.5,135.5
		c-44.7,26-89.3,26-134,0C76.7,395.1,57.8,350,68,292.5c5.6-18.4,12.9-36.1,22-53c8.2-15,16.8-29.7,26-44
		C141.1,159.3,165.9,122.9,190.5,86.5z"/>
</g>
<g>
	<path class="st1" d="M420.5,32.5c15.3-0.5,22.2,6.8,20.5,22c-26,45.3-52,90.7-78,136c-9,10.2-18.4,10.5-28,1
		c-2.9-5.8-3.3-11.8-1-18c26.3-44.8,52.3-89.8,78-135C414.6,36.1,417.5,34.1,420.5,32.5z"/>
</g>
<g>
	<path class="st2" d="M315.5,79.5c21,0.4,30.2,11,27.5,32c-5.4,13.1-15.3,18.6-29.5,16.5c-15-5.2-20.9-15.7-17.5-31.5
		C299.7,87.4,306.2,81.8,315.5,79.5z"/>
</g>
<g>
	<path class="st3" d="M447.5,102.5c22.1-1.4,32.3,9,30.5,31c-5.8,14.3-16.3,19.8-31.5,16.5c-16.5-8.3-20.7-20.8-12.5-37.5
		C437.6,107.7,442.1,104.4,447.5,102.5z"/>
</g>
<g>
	<path class="st4" d="M105.5,303.5c9.9-2.1,17,1.2,21.5,10c2.8,44.2,26.3,67.7,70.5,70.5c9,4.5,12.1,11.6,9.5,21.5
		c-1.8,4.5-5,7.7-9.5,9.5c-43.6,1.3-75.1-17.5-94.5-56.5c-6.3-14.4-8.7-29.4-7-45C98,309,101.2,305.6,105.5,303.5z"/>
</g>
</svg>
