<?xml version="1.0" encoding="utf-8"?>
<!-- Generator: Adobe Illustrator 28.0.0, SVG Export Plug-In . SVG Version: 6.00 Build 0)  -->
<svg version="1.0" id="Layer_1" xmlns="http://www.w3.org/2000/svg" xmlns:xlink="http://www.w3.org/1999/xlink" x="0px" y="0px"
	 viewBox="0 0 512 512" style="enable-background:new 0 0 512 512;" xml:space="preserve">
<style type="text/css">
	.st0{opacity:0.987;fill-rule:evenodd;clip-rule:evenodd;enable-background:new    ;}
	.st1{opacity:0.983;fill-rule:evenodd;clip-rule:evenodd;enable-background:new    ;}
</style>
<path d="M255.5,495.5c-64.2,0-124.6-25-170.1-70.4C40,379.6,15,319.2,15,255S40,130.3,85.4,84.9s105.8-70.4,170.1-70.4
	s124.6,25,170.1,70.4C471,130.3,496,190.7,496,255s-25,124.6-70.5,170C380.1,470.4,319.7,495.5,255.5,495.5z M255.5,36.5
	C135,36.5,37,134.5,37,255s98,218.5,218.5,218.5S474,375.4,474,255C474,134.5,376,36.5,255.5,36.5z"/>
<g>
	<path class="st0" d="M236.5,60.5c68.7-4.3,125.6,19.4,170.5,71c46.8,62,56.1,129.3,28,202c-32.1,68.1-85.6,106.9-160.5,116.5
		c-69.3,4.8-126.5-19-171.5-71.5c-45.9-61.9-54.9-128.9-27-201C108.3,109.4,161.8,70.4,236.5,60.5z M194.5,162.5
		c-10.1,3.8-15.6,11.1-16.5,22c-0.7,47.3-0.7,94.7,0,142c3.8,19.1,14.9,25.6,33.5,19.5c40.2-23.6,80.5-46.9,121-70
		c14.9-10.2,16.9-22.5,6-37c-42.2-24.9-84.5-49.6-127-74C206.1,162.8,200.4,162,194.5,162.5z M118.5,316.5c-5,1.9-6.8,5.6-5.5,11
		c9.5,19.6,22.4,36.7,38.5,51.5c43,36,92,48,147,36c7.8-3.3,8.8-7.9,3-14c-13.6,1.7-27.2,2.9-41,3.5c-61.4-1.8-106.3-29.8-134.5-84
		C124.1,318,121.6,316.6,118.5,316.5z M322.5,385.5c-2.1,1.9-3.4,4.2-4,7c2.9,8,7.4,9.3,13.5,4C334.2,388.5,331,384.8,322.5,385.5z"
		/>
</g>
<g>
	<path class="st1" d="M196.5,177.5c2.7-0.2,5.4,0,8,0.5c40.8,23.9,81.8,47.6,123,71c3.3,3.5,3.8,7.3,1.5,11.5
		c-41.4,24.3-82.9,48.5-124.5,72.5c-4.1,1.2-7.6,0.4-10.5-2.5c-0.7-50-0.7-100,0-150C195,179.6,195.9,178.6,196.5,177.5z"/>
</g>
</svg>
