<?xml version="1.0" encoding="utf-8"?>
<!-- Generator: Adobe Illustrator 28.0.0, SVG Export Plug-In . SVG Version: 6.00 Build 0)  -->
<svg version="1.0" id="Layer_1" xmlns="http://www.w3.org/2000/svg" xmlns:xlink="http://www.w3.org/1999/xlink" x="0px" y="0px"
	 viewBox="0 0 512 512" style="enable-background:new 0 0 512 512;" xml:space="preserve">
<style type="text/css">
	.st0{opacity:0.976;fill-rule:evenodd;clip-rule:evenodd;enable-background:new    ;}
	.st1{opacity:0.974;fill-rule:evenodd;clip-rule:evenodd;enable-background:new    ;}
	.st2{opacity:0.984;fill-rule:evenodd;clip-rule:evenodd;enable-background:new    ;}
	.st3{opacity:0.989;fill-rule:evenodd;clip-rule:evenodd;enable-background:new    ;}
	.st4{opacity:0.99;fill-rule:evenodd;clip-rule:evenodd;enable-background:new    ;}
</style>
<g>
	<path class="st0" d="M-0.5,127.5c0-23.7,0-47.3,0-71c3.3-7.5,9-12.3,17-14.5c23-0.5,46-0.7,69-0.5c0,14.7,0,29.3,0,44
		c-14.3,0-28.7,0-43,0c0,14,0,28,0,42C28.2,127.5,13.8,127.5-0.5,127.5z"/>
</g>
<g>
	<path class="st0" d="M511.5,56.5c0,23.7,0,47.3,0,71c-14.3,0-28.7,0-43,0c0-14,0-28,0-42c-14.3,0-28.7,0-43,0c0-14.7,0-29.3,0-44
		c23-0.2,46,0,69,0.5C502.5,44.2,508.2,49,511.5,56.5z"/>
</g>
<g>
	<path class="st1" d="M244.5,63.5c33.6-3,57.4,10.7,71.5,41c9.7,32,1.2,57.8-25.5,77.5c-18.4,10.3-37.8,12.3-58,6
		c-30.8-14.3-44.3-38.5-40.5-72.5C198.8,87.2,216.3,69.9,244.5,63.5z M252.5,106.5c17.7,1.2,25.2,10.5,22.5,28
		c-8.2,14.5-19.3,17.3-33.5,8.5c-8.6-9.4-9.1-19.3-1.5-29.5C243.7,110.2,247.9,107.9,252.5,106.5z"/>
</g>
<g>
	<path class="st2" d="M79.5,212.5c32-0.2,64,0,96,0.5c8.1,1.8,13.2,6.6,15.5,14.5c0.7,26,0.7,52,0,78c-2.1,5.8-5.9,9.9-11.5,12.5
		c-6.6,1.2-13.3,1.9-20,2c16,16,32,32,48,48c-10.5,10.5-21,21-31.5,31.5c-23-23-46-46-69-69c-0.5,17.7-0.7,35.3-0.5,53
		c-14.3,0-28.7,0-43,0c-0.2-52,0-104,0.5-156C66.5,219.7,71.7,214.7,79.5,212.5z M106.5,255.5c14,0,28,0,42,0c0,7,0,14,0,21
		c-14,0-28,0-42,0C106.5,269.5,106.5,262.5,106.5,255.5z"/>
</g>
<g>
	<path class="st3" d="M228.5,212.5c30.3,0,60.7,0,91,0c0,14.3,0,28.7,0,43c-21.3,0-42.7,0-64,0c0,7,0,14,0,21c14.3,0,28.7,0,43,0
		c0,14.3,0,28.7,0,43c-14.3,0-28.7,0-43,0c0,7,0,14,0,21c21.3,0,42.7,0,64,0c0,14.3,0,28.7,0,43c-30.7,0.2-61.3,0-92-0.5
		c-7.9-2.3-12.7-7.4-14.5-15.5c-0.7-46.3-0.7-92.7,0-139C215.7,220.6,220.9,215.3,228.5,212.5z"/>
</g>
<g>
	<path class="st4" d="M356.5,212.5c30.3,0,60.7,0,91,0c0,14.3,0,28.7,0,43c-21.3,0-42.7,0-64,0c0,28.3,0,56.7,0,85
		c21.3,0,42.7,0,64,0c0,14.3,0,28.7,0,43c-30.7,0.2-61.3,0-92-0.5c-7.9-2.3-12.7-7.4-14.5-15.5c-0.7-46.3-0.7-92.7,0-139
		C343.7,220.6,348.9,215.3,356.5,212.5z"/>
</g>
<g>
	<path class="st0" d="M-0.5,383.5c14.3,0,28.7,0,43,0c0,14,0,28,0,42c14.3,0,28.7,0,43,0c0,14.7,0,29.3,0,44c-23,0.2-46,0-69-0.5
		c-8-2.2-13.7-7-17-14.5C-0.5,430.8-0.5,407.2-0.5,383.5z"/>
</g>
<g>
	<path class="st0" d="M511.5,383.5c0,23.7,0,47.3,0,71c-3.3,7.5-9,12.3-17,14.5c-23,0.5-46,0.7-69,0.5c0-14.7,0-29.3,0-44
		c14.3,0,28.7,0,43,0c0-14,0-28,0-42C482.8,383.5,497.2,383.5,511.5,383.5z"/>
</g>
</svg>
