<?xml version="1.0" encoding="utf-8"?>
<!-- Generator: Adobe Illustrator 28.0.0, SVG Export Plug-In . SVG Version: 6.00 Build 0)  -->
<svg version="1.0" id="Layer_1" xmlns="http://www.w3.org/2000/svg" xmlns:xlink="http://www.w3.org/1999/xlink" x="0px" y="0px"
	 viewBox="0 0 512 512" style="enable-background:new 0 0 512 512;" xml:space="preserve">
<style type="text/css">
	.st0{opacity:0.986;fill-rule:evenodd;clip-rule:evenodd;enable-background:new    ;}
	.st1{opacity:0.99;fill-rule:evenodd;clip-rule:evenodd;enable-background:new    ;}
	.st2{opacity:0.966;fill-rule:evenodd;clip-rule:evenodd;enable-background:new    ;}
</style>
<g>
	<path class="st0" d="M37.5-0.5c34.7,0,69.3,0,104,0c10.3,6.2,12.8,14.9,7.5,26c-1.9,2.6-4.4,4.4-7.5,5.5c-31.3,0.3-62.7,0.7-94,1
		c-9.2,1.2-14.3,6.3-15.5,15.5c-0.3,31.3-0.7,62.7-1,94c-2.8,7-8,10.3-15.5,10c-7.6,0.2-12.9-3.1-16-10c0-34.7,0-69.3,0-104
		C5.2,17.8,17.8,5.2,37.5-0.5z"/>
</g>
<g>
	<path class="st0" d="M369.5-0.5c34.7,0,69.3,0,104,0c19.7,5.7,32.3,18.3,38,38c0,34.7,0,69.3,0,104c-6.2,10.3-14.9,12.8-26,7.5
		c-2.6-1.9-4.4-4.4-5.5-7.5c-0.3-31.3-0.7-62.7-1-94c-1.2-9.2-6.3-14.3-15.5-15.5c-31.3-0.3-62.7-0.7-94-1c-7-2.8-10.3-8-10-15.5
		C359.3,7.9,362.6,2.6,369.5-0.5z"/>
</g>
<g>
	<path class="st1" d="M73.5,63.5c121.3-0.2,242.7,0,364,0.5c4.5,1.8,7.7,5,9.5,9.5c0.7,121.3,0.7,242.7,0,364
		c-1.8,4.5-5,7.7-9.5,9.5c-121.3,0.7-242.7,0.7-364,0c-4.5-1.8-7.7-5-9.5-9.5c-0.7-121.3-0.7-242.7,0-364C66,69,69.2,65.6,73.5,63.5
		z M95.5,95.5c106.7,0,213.3,0,320,0c0.2,40,0,80-0.5,120c-36.2,31.4-72.2,63.1-108,95c-30.4-26.1-60.6-52.6-90.5-79.5
		c-9.5-6.5-18.5-5.8-27,2c-31,27.2-62,54.3-93,81.5C95.5,241.5,95.2,168.5,95.5,95.5z M413.5,260.5c2,51.3,2.7,103,2,155
		c-106.7,0-213.3,0-320,0c-0.2-18.7,0-37.3,0.5-56c36.2-31.4,72.2-63.1,108-95c30.4,26.1,60.6,52.6,90.5,79.5c9.5,6.5,18.5,5.8,27-2
		C352.4,315.1,383.1,287.9,413.5,260.5z"/>
</g>
<g>
	<path class="st2" d="M327.5,143.5c28.5-1.7,41.6,11.6,39.5,40c-6.4,18.9-19.5,26.8-39.5,23.5c-18.9-6.4-26.8-19.5-23.5-39.5
		C307.3,155,315.2,147,327.5,143.5z"/>
</g>
<g>
	<path class="st0" d="M141.5,511.5c-34.7,0-69.3,0-104,0c-19.7-5.7-32.3-18.3-38-38c0-34.7,0-69.3,0-104c6.2-10.3,14.9-12.8,26-7.5
		c2.6,1.9,4.4,4.4,5.5,7.5c0.3,31.3,0.7,62.7,1,94c1.2,9.2,6.3,14.3,15.5,15.5c31.3,0.3,62.7,0.7,94,1c7,2.8,10.3,8,10,15.5
		C151.7,503.1,148.4,508.4,141.5,511.5z"/>
</g>
<g>
	<path class="st0" d="M511.5,369.5c0,34.7,0,69.3,0,104c-5.7,19.7-18.3,32.3-38,38c-34.7,0-69.3,0-104,0c-10.3-6.2-12.8-14.9-7.5-26
		c1.9-2.6,4.4-4.4,7.5-5.5c31.3-0.3,62.7-0.7,94-1c9.2-1.2,14.3-6.3,15.5-15.5c0.3-31.3,0.7-62.7,1-94c2.8-7,8-10.3,15.5-10
		C503.1,359.3,508.4,362.6,511.5,369.5z"/>
</g>
</svg>
