<?xml version="1.0" encoding="utf-8"?>
<!-- Generator: Adobe Illustrator 28.0.0, SVG Export Plug-In . SVG Version: 6.00 Build 0)  -->
<svg version="1.0" id="Layer_1" xmlns="http://www.w3.org/2000/svg" xmlns:xlink="http://www.w3.org/1999/xlink" x="0px" y="0px"
	 viewBox="0 0 512 512" style="enable-background:new 0 0 512 512;" xml:space="preserve">
<path d="M490,132.5c-0.7-2.4-1.7-4.8-3-7c-7.2-8.5-16-11-26.5-7.5c-18.4,12.6-36.4,25.8-54,39.5c-0.8-19-1.3-38-1.5-57
	c-3.3-17.3-13.2-29.2-29.5-35.5c-107-1.5-214-2-321-1.5c-18.1,4.9-29.3,16.6-33.5,35c-0.7,104.7-0.7,209.3,0,314
	c4.1,18.4,15.2,29.9,33.5,34.5c105.7,0.7,211.3,0.7,317,0c19-4.9,30.2-17.1,33.5-36.5c0.3-15.7,0.7-31.3,1-47
	c15.4,12,30.9,23.8,46.5,35.5c16.2,10.9,28.7,7.8,37.5-9.5C490.7,303.8,490.7,218.2,490,132.5z M447,339.5
	c-17.8-13.2-35.7-26.3-53.5-39.5c-11.4-4.9-20.9-2.4-28.5,7.5c-1.6,2.5-2.6,5.1-3,8c-0.5,29.7-0.7,59.3-0.5,89h-298v-298h298
	c-0.2,33.3,0,66.7,0.5,100c3,10.6,10,16.6,21,18c3.2-0.6,6.4-1.4,9.5-2.5c18.4-12.6,36.4-25.8,54-39.5
	C447.7,234.8,447.8,287.2,447,339.5z"/>
<circle cx="180.7" cy="223.4" r="70.5"/>
</svg>
