<?xml version="1.0" encoding="utf-8"?>
<!-- Generator: Adobe Illustrator 28.0.0, SVG Export Plug-In . SVG Version: 6.00 Build 0)  -->
<svg version="1.0" id="Layer_1" xmlns="http://www.w3.org/2000/svg" xmlns:xlink="http://www.w3.org/1999/xlink" x="0px" y="0px"
	 viewBox="0 0 512 512" style="enable-background:new 0 0 512 512;" xml:space="preserve">
<style type="text/css">
	.st0{opacity:0.947;fill-rule:evenodd;clip-rule:evenodd;enable-background:new    ;}
	.st1{opacity:0.945;fill-rule:evenodd;clip-rule:evenodd;enable-background:new    ;}
	.st2{opacity:0.94;fill-rule:evenodd;clip-rule:evenodd;enable-background:new    ;}
	.st3{opacity:0.972;fill-rule:evenodd;clip-rule:evenodd;enable-background:new    ;}
	.st4{opacity:0.936;fill-rule:evenodd;clip-rule:evenodd;enable-background:new    ;}
	.st5{opacity:0.979;fill-rule:evenodd;clip-rule:evenodd;enable-background:new    ;}
	.st6{opacity:0.939;fill-rule:evenodd;clip-rule:evenodd;enable-background:new    ;}
	.st7{opacity:0.938;fill-rule:evenodd;clip-rule:evenodd;enable-background:new    ;}
</style>
<g>
	<path class="st0" d="M192.5-0.5c8,0,16,0,24,0c28.5,6.7,47.4,24,56.5,52c0.9,4.3,1.6,8.6,2,13c0.3,84,0.7,168,1,252
		c36,33.8,47,74.5,33,122c-16.5,40.7-46.4,65-89.5,73c-10,0-20,0-30,0c-51.8-10.2-83.2-41.2-94-93c-5-40.9,7.9-74.9,38.5-102
		c0-87.7,0.7-175.4,2-263C144.3,24.4,163.1,6.4,192.5-0.5z M195.5,20.5c33.2-2,52.7,13.4,58.5,46c0.3,86.3,0.7,172.7,1,259
		c5.6,5.6,11.2,11.3,17,17c30,39.3,30,78.7,0,118c-30.7,31.1-66.2,38.3-106.5,21.5c-36-20.2-52.5-51-49.5-92.5
		c4.2-25.4,16.5-45.8,37-61c0.9-1.6,1.5-3.3,2-5c0.3-87.7,0.7-175.3,1-263C161.3,39.3,174.5,26,195.5,20.5z"/>
</g>
<g>
	<path class="st1" d="M313.5-0.5c5.3,0,10.7,0,16,0c20.1,8.4,26.6,23.1,19.5,44C341,57,329.1,62.1,313.5,59
		c-17-6.2-24.2-18.4-21.5-36.5C294.9,10.8,302.1,3.1,313.5-0.5z M317.5,20.5c7.7-1.5,12.3,1.5,14,9c-1.7,7.7-6.3,10.5-14,8.5
		C310.9,32.2,310.9,26.3,317.5,20.5z"/>
</g>
<g>
	<path class="st2" d="M415.5,20.5c12.4-0.1,24.1,2.7,35,8.5c7,4.1,8.8,10,5.5,17.5c-2.4,2.2-5.2,3.5-8.5,4c-5.2-1.6-10.2-3.8-15-6.5
		c-22.9-5.3-39.8,2.6-50.5,23.5c-6.5,22.6,0.3,39.7,20.5,51.5c7.7,3.2,15.7,4.2,24,3c7.3-2.7,14.3-5.8,21-9.5
		c8.7,1.4,11.9,6.4,9.5,15c-7.3,8.9-16.8,14.1-28.5,15.5c-32.7,2.6-55.2-11.2-67.5-41.5c-7.7-30.8,1.5-54.9,27.5-72.5
		C397.2,24.6,406.2,21.8,415.5,20.5z"/>
</g>
<g>
	<path class="st3" d="M58.5,47.5c16.7-0.2,33.3,0,50,0.5c4.8,3.7,6.3,8.5,4.5,14.5c-1.2,1.8-2.7,3.3-4.5,4.5
		c-16.7,0.7-33.3,0.7-50,0c-4.8-3.7-6.3-8.5-4.5-14.5C55.4,50.6,56.9,49,58.5,47.5z"/>
</g>
<g>
	<path class="st4" d="M59.5,102.5c16-0.2,32,0,48,0.5c5.6,3.3,7.4,8.1,5.5,14.5c-1.3,2.9-3.4,4.7-6.5,5.5c-15.3,0.7-30.7,0.7-46,0
		c-5-1.4-7.4-4.8-7-10C53.3,108.2,55.3,104.7,59.5,102.5z"/>
</g>
<g>
	<path class="st4" d="M60.5,157.5c15.3-0.2,30.7,0,46,0.5c6.6,2.7,8.7,7.6,6.5,14.5c-1.2,2.5-3,4.3-5.5,5.5c-16,0.7-32,0.7-48,0
		c-4.3-1.9-6.3-5.3-6-10C53.3,162.7,55.6,159.2,60.5,157.5z"/>
</g>
<g>
	<path class="st5" d="M198.5,183.5c14.5-2,23.3,4,26.5,18c0.3,47.7,0.7,95.3,1,143c29.6,13.6,42.3,36.6,38,69
		c-10.3,35.3-33.8,51.1-70.5,47.5c-31.1-7.7-47.4-27.5-49-59.5c0.8-27.3,13.8-46.3,39-57c0.8-49,1.3-98,1.5-147
		C187.7,191,192.2,186.3,198.5,183.5z"/>
</g>
<g>
	<path class="st6" d="M62.5,212.5c15.4-0.4,30.7,0.1,46,1.5c4.8,3.7,6.3,8.5,4.5,14.5c-1.5,1.5-3,3-4.5,4.5c-16.7,0.7-33.3,0.7-50,0
		c-4.8-3.7-6.3-8.5-4.5-14.5C56.2,215.4,59,213.4,62.5,212.5z"/>
</g>
<g>
	<path class="st7" d="M59.5,268.5c16-0.2,32,0,48,0.5c5.6,3.3,7.4,8.1,5.5,14.5c-1.5,3.2-4,5-7.5,5.5c-14.7,0.7-29.3,0.7-44,0
		c-5.6-1-8.3-4.3-8-10C53.3,274.2,55.3,270.7,59.5,268.5z"/>
</g>
</svg>
